<svg version="1.2" baseProfile="tiny" xmlns="http://www.w3.org/2000/svg" width="123" height="141" viewBox="0 0 123 141"><path fill="#0BAA6E" d="M1161.8 233c-45.6 0-82.5 36.9-82.5 82.5s36.9 82.5 82.5 82.5 82.5-36.9 82.5-82.5-36.9-82.5-82.5-82.5zm-.5 148c-36.5 0-66-29.5-66-66s29.5-66 66-66 66 29.5 66 66-29.5 66-66 66z"/><path fill="#0BAA6E" d="M1115.2 391l44.9-11.2c1.4-.3 2.6.9 2.3 2.2l-21.4 90.3c-.9 3.6 1.9 7.1 5.6 7.1 2.3 0 4.3-1.3 5.3-3.3l63.3-135.7c2.1-4.4-2-9.3-6.7-8.1l-44.1 11.5c-1.4.4-2.6-1-2.1-2.3l19.6-51c1.5-3.8-1.3-7.6-5.4-7.6h-38c-2.7 0-5 1.6-5.6 4.1l-24.5 97c-1.3 4.3 2.6 8.1 6.8 7z"/><g fill="#0BAA6E"><path d="M1161.8 439c2.5 0 5-.1 7.4-.2l8.4-18c-5.3.8-10.8 1.2-16.3 1.2-2.8 0-5.6-.1-8.4-.3l-4 16.7c4.3.4 8.6.6 12.9.6z"/><path d="M1161.8 192c-68.2 0-123.5 55.3-123.5 123.5 0 56.2 37.6 103.7 89 118.6l3.9-16.4c-44.5-13-76.9-54.1-76.9-102.7 0-59.1 47.9-107 107-107s107 47.9 107 107c0 43.2-25.6 80.4-62.5 97.3l-10.3 22c51.8-14.7 89.7-62.3 89.7-118.8.1-68.2-55.2-123.5-123.4-123.5z"/></g><path fill="#0BAA6E" d="M954.8 299.3c-3.9 0-7.6-1.8-10-4.9-2.4-3.1-3.3-7.1-2.4-10.9l19.5-82.1-36.7 9.1c-1 .3-2.1.4-3.1.4-4 0-7.6-1.8-10.1-4.9-2.4-3.1-3.3-7.1-2.3-11l24.5-97.3c1.4-5.7 6.5-9.8 12.4-9.8h38c4.2 0 8.2 2.2 10.5 5.7 2.4 3.5 2.9 8 1.4 11.9l-16 41.7 34.2-8.9c1.1-.3 2.2-.4 3.3-.4 4.4 0 8.4 2.2 10.8 6 2.4 3.7 2.7 8.3.8 12.3l-63.3 135.7c-2 4.5-6.5 7.4-11.5 7.4z"/><path fill="#FFF" d="M984.7 95c4.1 0 6.9 4.2 5.4 8l-19.6 51.3c-.5 1.2.5 2.4 1.6 2.4h.5l44.1-11.5c.5-.1 1-.2 1.5-.2 4 0 7.1 4.3 5.2 8.3L960.1 289c-1 2-3 3.3-5.3 3.3-3.7 0-6.5-3.5-5.6-7.1l21.4-90.3c.3-1.2-.6-2.3-1.8-2.3-.1 0-.3 0-.5.1l-44.9 11.2c-.5.1-1 .2-1.4.2-3.6 0-6.5-3.5-5.6-7.2L941 99.5c.7-2.6 3-4.5 5.6-4.5H985m-.3-14h-38c-9.1 0-17 6.3-19.2 15.1L903 193.3c-1.5 6-.2 12.2 3.6 17 3.8 4.9 9.5 7.7 15.6 7.7 1.6 0 3.2-.2 4.8-.6l25.5-6.4-16.9 71c-1.4 5.9 0 12.1 3.7 16.8 3.8 4.8 9.4 7.5 15.5 7.5 7.7 0 14.7-4.5 17.9-11.4l63.3-135.7c2.9-6.2 2.4-13.3-1.2-19-3.7-5.8-9.9-9.2-16.7-9.2-1.7 0-3.4.2-5 .7l-21 5.5 11.1-29c2.3-6.1 1.5-13.1-2.2-18.5-3.7-5.3-9.8-8.7-16.3-8.7z"/><path fill="#0BAA6E" d="M966.9 16.4c-65.4 2.5-117.8 56.4-118.6 121.8-.7 57.9 38.3 106.7 91.5 121 2.7.7 5.5-1 6.1-3.7l1.6-6.7c.6-2.7-1-5.3-3.6-6-46.9-12.4-81.2-55.8-79.6-107 1.9-57.8 50-103.9 107.8-103.5 58.7.5 106.1 48.2 106.1 107 0 51.2-35.9 93.9-83.9 104.5-1.5.3-2.8 1.4-3.5 2.8l-3.7 7.9c-1.7 3.7 1.4 7.7 5.4 7 58.3-9.9 102.7-60.6 102.7-121.8.1-69.7-57.8-126-128.3-123.3z"/><path fill="#0BAA6E" d="M969.9 57.4c-43.8 1-79.5 36.7-80.5 80.4-.4 16.3 4 31.6 11.8 44.5 2.3 3.8 8 2.9 9.1-1.4l2.3-9c.3-1.2.1-2.4-.4-3.5-4.7-9.5-7.1-20.3-6.7-31.7 1.3-34.1 28.8-61.9 62.9-63.4 37.8-1.7 69 28.5 69 65.9 0 16.8-6.3 32.1-16.6 43.7-.3.4-.6.8-.8 1.2l-7.7 16.6c-2.2 4.6 3.2 9.2 7.4 6.2 21-15 34.7-39.5 34.7-67.2-.1-46.1-38.1-83.4-84.5-82.3z"/><g><path fill="#50D94E" d="M38.2 96l22.4-5.6c.7-.2 1.3.4 1.1 1.1L51 136.7c-.4 1.8.9 3.6 2.8 3.6 1.1 0 2.2-.7 2.6-1.7L88 70.8c1-2.2-1-4.6-3.4-4l-22 5.8c-.7.2-1.3-.5-1-1.2l9.8-25.5c.7-1.9-.7-3.8-2.7-3.8h-19c-1.3 0-2.5.8-2.8 2.1L34.7 92.5c-.5 2.2 1.4 4 3.5 3.5z"/><path fill="#50D94E" d="M40.7 119.1c-.5 0-1-.1-1.4-.3C15.8 109.8 0 86.7 0 61.5 0 27.6 27.6 0 61.5 0S123 27.6 123 61.5c0 24.5-14.5 46.6-37 56.4-2 .9-4.4 0-5.3-2.1-.9-2 0-4.4 2.1-5.3C102.4 102 115 82.7 115 61.4 115 32 91 8 61.5 8S8 32 8 61.5c0 21.9 13.7 42 34.2 49.9 2.1.8 3.1 3.1 2.3 5.2-.6 1.6-2.2 2.5-3.8 2.5z"/><path fill="#50D94E" d="M25.2 73c-1.9 0-3.6-1.3-3.9-3.2-.5-2.5-.7-5.2-.7-7.8 0-22.6 18.4-41 41-41 20.5 0 37.9 15.3 40.6 35.6.3 2.2-1.2 4.2-3.4 4.5-2.2.3-4.2-1.2-4.5-3.4C92 41.3 78 29 61.5 29c-18.2 0-33 14.8-33 33 0 2.1.2 4.2.6 6.3.4 2.2-1 4.3-3.2 4.7h-.7z"/></g></svg>