<svg width="121" height="148" viewBox="0 0 121 148" xmlns="http://www.w3.org/2000/svg"><title>logo</title><g fill="#4CD964" fill-rule="evenodd"><path d="M82.111 109.15c18.668-8.291 31.687-26.992 31.687-48.735 0-29.435-23.863-53.297-53.298-53.297-29.435 0-53.298 23.862-53.298 53.297 0 17.705 8.633 33.393 21.919 43.086a6.952 6.952 0 0 0 3.668 2.45 52.96 52.96 0 0 0 21.248 7.374l-1.654 7.135C22.808 116.494 0 91.16 0 60.5 0 27.087 27.087 0 60.5 0S121 27.087 121 60.5c0 27.428-18.252 50.593-43.273 58.012l4.384-9.363zm13.377-28.57a40.143 40.143 0 0 0 2.861-6.112l-2.861 6.112zm5.03-15.011c.208-1.66.315-3.352.315-5.069 0-22.275-18.058-40.333-40.333-40.333S20.167 38.225 20.167 60.5a40.18 40.18 0 0 0 10.079 26.674l2.168-9.093A32.976 32.976 0 0 1 27.369 60.5c0-18.298 14.833-33.131 33.131-33.131 18.298 0 33.131 14.833 33.131 33.131v.168c3.438-.164 6.132 1.96 6.887 4.9z"/><path d="M64.66 92.712L42.953 98.1l-8.056 2.099c-1.068.278-1.727-.368-1.472-1.445L47.13 40.95C47.385 39.872 48.485 39 49.592 39h24.283c1.104 0 1.698.842 1.323 1.886L63.512 73.461l30.701-7.838c1.021-.261 1.503.265 1.134 1.171.029.204-.026.472-.176.793l-36.6 78.6c-.466 1.001-1.74 1.813-2.846 1.813h-1.813c-1.105 0-1.799-.878-1.552-1.948l12.3-53.34z"/></g></svg>