<svg xmlns="http://www.w3.org/2000/svg" width="480" height="480" viewBox="-239 41 480 480"><path d="M231.5 105c-4.7-11.9-15.4-28.6-30.7-40.3-8.8-6.8-19.4-13.3-33.8-17.6-15.4-4.6-34.4-6.1-58-6.1h-216c-23.6 0-42.6 1.5-58 6.1-14.5 4.3-25 10.8-33.8 17.6-15.3 11.8-26 28.4-30.7 40.3-9.4 23.8-9.5 50.9-9.5 68v216c0 17 .1 44.1 9.5 68 4.7 11.9 15.4 28.6 30.7 40.3 8.8 6.8 19.4 13.3 33.8 17.6 15.4 4.6 34.4 6.1 58 6.1h216c23.6 0 42.6-1.5 58-6.1 14.5-4.3 25-10.8 33.8-17.6 15.3-11.8 26-28.4 30.7-40.3 9.4-23.8 9.5-50.9 9.5-68V173c0-17-.1-44.1-9.5-68zM41.7 366.5c-1.2 14.7-3.6 34.3-6.7 54.3-2.2 14.2-4 21.9-5.6 27.4-2.6 8.9-12.5 16.7-28 16.7s-25.4-7.8-28-16.7c-1.6-5.5-3.4-13.2-5.6-27.4-3.1-20-5.5-39.6-6.7-54.3-1.3-15.4-2-25.1-.8-36.3.7-5.8 2.6-9.8 6.4-13.8 7.2-7.6 19.9-12.5 34.8-12.5 15 0 27.6 4.9 34.8 12.5 3.8 4 5.8 8 6.2 13.8 1.2 11.2.5 20.9-.8 36.3zM-61 329.2c1.5 1.4 2.3 3.4 2.2 5.5-.4 6.3-.2 12.4.2 19.3.1 1.8-2 3-3.5 2-30.2-20.6-49.9-55.5-49.4-94.9.8-59.9 48.8-109.2 108.6-111.5 64.4-2.5 117.6 49.2 117.6 113 0 38.8-19.6 73-49.4 93.4-1.5 1-3.6-.2-3.5-2 .4-6.9.5-13 .2-19.3-.1-2.1.7-4.1 2.2-5.5 17.8-16.7 28.9-40.4 28.9-66.7 0-51.6-43-93.4-95.1-91.4-47.9 1.9-86.5 41.1-87.9 89-.7 27.2 10.6 51.9 28.9 69.1zm101.9-80.5c0 21.7-17.6 39.3-39.3 39.3-21.7 0-39.3-17.6-39.3-39.3 0-21.7 17.6-39.3 39.3-39.3 21.7 0 39.3 17.6 39.3 39.3zM57 422.3c-1.6.5-3.3-.8-3-2.5.8-5.8 1.6-11.6 2.4-17.3.2-2 1.5-3.8 3.4-4.6 52-22.8 88.5-74.7 88.5-135 0-81.6-66.7-147.9-148.4-147.2-80 .7-145.2 65.9-146 145.8-.5 60.9 36.1 113.5 88.5 136.4 1.9.8 3.1 2.6 3.4 4.6.7 5.7 1.5 11.5 2.4 17.3.2 1.7-1.4 3.1-3 2.5-66.3-23.3-113.8-87-112.9-161.4C-166.6 169-91.3 94.5.6 94.2c93.3-.3 169.3 75.6 169.3 168.8 0 73.5-47.2 136.2-112.9 159.3z" fill="#000"/></svg>