<svg id="Layer_1" xmlns="http://www.w3.org/2000/svg" width="480" height="480" viewBox="-239 41 480 480"><style>.st1{fill:#fff}</style><linearGradient id="SVGID_1_" gradientUnits="userSpaceOnUse" x1="1" y1="43" x2="1" y2="523" gradientTransform="matrix(1 0 0 -1 0 564)"><stop offset="0" stop-color="#832bc1"/><stop offset="1" stop-color="#f452ff"/></linearGradient><path d="M231.5 457c-4.7 11.9-15.4 28.5-30.7 40.3-8.8 6.8-19.3 13.3-33.8 17.6-15.4 4.6-34.4 6.1-58 6.1h-216c-23.6 0-42.6-1.5-58-6.1-14.4-4.3-25-10.8-33.8-17.6-15.3-11.7-26-28.4-30.7-40.3-9.4-23.9-9.5-51-9.5-68V173c0-17.1.1-44.2 9.5-68 4.7-11.9 15.4-28.5 30.7-40.3 8.8-6.8 19.3-13.3 33.8-17.6 15.4-4.6 34.4-6.1 58-6.1h216c23.6 0 42.6 1.5 58 6.1 14.4 4.3 25 10.8 33.8 17.6 15.3 11.7 26 28.4 30.7 40.3 9.4 23.9 9.5 51 9.5 68v216c0 17.1-.1 44.2-9.5 68z" fill="url(#SVGID_1_)"/><path class="st1" d="M36.3 316.4c-7.2-7.6-19.8-12.5-34.8-12.5-14.9 0-27.6 4.9-34.8 12.5-3.8 4-5.7 8-6.4 13.8-1.2 11.2-.5 20.9.8 36.3 1.2 14.7 3.6 34.3 6.7 54.3 2.2 14.2 4 21.9 5.6 27.4 2.6 8.9 12.5 16.7 28 16.7s25.4-7.8 28-16.7c1.6-5.5 3.4-13.2 5.6-27.4 3.1-20 5.5-39.6 6.7-54.3 1.3-15.4 2-25.1.8-36.3-.4-5.8-2.4-9.8-6.2-13.8zM-37.7 248.7c0 21.7 17.6 39.3 39.3 39.3s39.3-17.6 39.3-39.3-17.6-39.3-39.3-39.3-39.3 17.6-39.3 39.3z"/><path class="st1" d="M.6 94.2c-91.9.3-167.2 74.8-168.3 166.7-.9 74.4 46.6 138.1 112.9 161.4 1.6.6 3.2-.8 3-2.5-.9-5.8-1.7-11.6-2.4-17.3-.3-2-1.5-3.8-3.4-4.6-52.4-22.9-89-75.5-88.5-136.4.8-79.9 66-145.1 146-145.8 81.7-.7 148.4 65.6 148.4 147.2 0 60.3-36.5 112.2-88.5 135-1.9.8-3.2 2.6-3.4 4.6-.8 5.7-1.6 11.5-2.4 17.3-.3 1.7 1.4 3 3 2.5 65.7-23.1 112.9-85.8 112.9-159.3 0-93.2-76-169.1-169.3-168.8z"/><path class="st1" d="M-2 171.1c52.1-2 95.1 39.8 95.1 91.4 0 26.3-11.1 50-28.9 66.7-1.5 1.4-2.3 3.4-2.2 5.5.3 6.3.2 12.4-.2 19.3-.1 1.8 2 3 3.5 2 29.8-20.4 49.4-54.6 49.4-93.4 0-63.8-53.2-115.5-117.6-113-59.8 2.3-107.8 51.6-108.6 111.5-.5 39.4 19.2 74.3 49.4 94.9 1.5 1 3.6-.2 3.5-2-.4-6.9-.6-13-.2-19.3.1-2.1-.7-4.1-2.2-5.5-18.3-17.2-29.6-41.9-28.9-69.1 1.4-47.9 40-87.1 87.9-89z"/></svg>